# xmcd
#
# Track frame offsets: 
#        182
#        11372
#        26652
#        41702
#        50715
#        63540
#        79825
#        91667
#        103780
#        117875
#        132140
#        144437
#        156427
#        170955
#        183640
#        198167
#        208270
#        219727
#
# Disc length: 3107 seconds
#
# Revision: 3
# Processed by: cddbd v1.5.2PL0 Copyright (c) Steve Scherf et al.
# Submitted via: ExactAudioCopy v1.0b6
#
DISCID=0b0c2112
DTITLE=Tammy Wynette - The Country Store Collection
DYEAR=1988
DGENRE=Country
TTITLE0=Heaven's Just A Sin Away (1977)
TTITLE1=You Needed Me (1980)
TTITLE2=Only The Strong Survive (1983)
TTITLE3=Yesterday (1963)
TTITLE4=Take Me To Your World (1977)
TTITLE5=My Elusive Dreams (with George Jones 1973)
TTITLE6=I Don't Wanna Play House
TTITLE7=Stand By Your Man
TTITLE8=Starting Over (1980)
TTITLE9=Crying In The Rain (1981)
TTITLE10=Help Me Make It Through The Night (1974)
TTITLE11=There Goes My Everything (1968)
TTITLE12=Gentle On My Mind (1968)
TTITLE13=It's Just A Matter Of Time (1973)
TTITLE14=Unwed Fathers (1983)
TTITLE15=If I Could Only Win Your Love (1976)
TTITLE16=The Bottle (1975)
TTITLE17=Cowboys Don't Shoot Straight (1981)
EXTD=
EXTT0=
EXTT1=
EXTT2=
EXTT3=
EXTT4=
EXTT5=
EXTT6=
EXTT7=
EXTT8=
EXTT9=
EXTT10=
EXTT11=
EXTT12=
EXTT13=
EXTT14=
EXTT15=
EXTT16=
EXTT17=
PLAYORDER=
